<?xml version="1.0" encoding="utf-8"?>
<!-- Generator: Adobe Illustrator 23.0.1, SVG Export Plug-In . SVG Version: 6.00 Build 0)  -->
<svg version="1.1" id="Layer_1" xmlns="http://www.w3.org/2000/svg" xmlns:xlink="http://www.w3.org/1999/xlink" x="0px" y="0px"
	 viewBox="0 0 172 172" style="enable-background:new 0 0 172 172;" xml:space="preserve">
<style type="text/css">
	.st0{fill:#C61849;}
	.st1{fill:#FFFFFF;}
	.st2{fill:#FCDC09;}
</style>
<title>home-server-pi</title>
<circle class="st0" cx="65.6" cy="50.9" r="19.2"/>
<path class="st1" d="M65.6,31.7c10.6,0,19.2,8.6,19.2,19.2s-8.6,19.2-19.2,19.2s-19.2-8.6-19.2-19.2l0,0
	C46.4,40.3,55,31.7,65.6,31.7 M65.6,30.5c-11.3,0-20.4,9.1-20.4,20.4s9.1,20.4,20.4,20.4S86,62.2,86,50.9
	C86,39.7,76.9,30.6,65.6,30.5z"/>
<circle class="st0" cx="45.3" cy="86" r="19.2"/>
<path class="st1" d="M45.3,66.8c10.6,0,19.2,8.6,19.2,19.3s-8.6,19.2-19.3,19.2C34.6,105.2,26,96.6,26,86
	C26,75.4,34.6,66.8,45.3,66.8C45.2,66.8,45.3,66.8,45.3,66.8 M45.3,65.6C34,65.6,24.9,74.7,24.9,86s9.1,20.4,20.4,20.4
	S65.6,97.3,65.6,86c0,0,0,0,0,0C65.6,74.8,56.5,65.6,45.3,65.6z"/>
<circle class="st0" cx="126.7" cy="86" r="19.2"/>
<path class="st1" d="M126.7,66.8c10.6,0,19.2,8.6,19.2,19.2s-8.6,19.2-19.2,19.2c-10.6,0-19.2-8.6-19.2-19.2S116.1,66.8,126.7,66.8
	L126.7,66.8 M126.7,65.6c-11.3,0-20.4,9.1-20.4,20.4s9.1,20.4,20.4,20.4c11.3,0,20.4-9.1,20.4-20.4c0,0,0,0,0,0
	C147.1,74.8,138,65.6,126.7,65.6z"/>
<circle class="st0" cx="106.4" cy="50.9" r="19.2"/>
<path class="st1" d="M106.4,31.7c10.6,0,19.2,8.6,19.2,19.2s-8.6,19.2-19.2,19.2s-19.2-8.6-19.2-19.2l0,0
	C87.1,40.3,95.7,31.7,106.4,31.7 M106.4,30.5C95.1,30.5,86,39.7,86,50.9s9.1,20.4,20.4,20.4s20.4-9.1,20.4-20.4
	C126.7,39.7,117.6,30.6,106.4,30.5z"/>
<circle class="st0" cx="86" cy="86" r="19.2"/>
<path class="st1" d="M86,66.8c10.6,0,19.2,8.6,19.2,19.2s-8.6,19.2-19.2,19.2S66.8,96.6,66.8,86l0,0C66.8,75.4,75.4,66.8,86,66.8
	 M86,65.6c-11.3,0-20.4,9.1-20.4,20.4s9.1,20.4,20.4,20.4s20.4-9.1,20.4-20.4v0C106.4,74.8,97.2,65.6,86,65.6z"/>
<circle class="st0" cx="65.6" cy="121.1" r="19.2"/>
<path class="st1" d="M65.6,101.8c10.6,0,19.2,8.6,19.2,19.2c0,10.6-8.6,19.2-19.2,19.2s-19.2-8.6-19.2-19.2
	C46.4,110.5,55,101.8,65.6,101.8C65.6,101.8,65.6,101.8,65.6,101.8 M65.6,100.7c-11.3,0-20.4,9.1-20.4,20.4s9.1,20.4,20.4,20.4
	S86,132.3,86,121.1l0,0C86,109.8,76.9,100.7,65.6,100.7z"/>
<circle class="st0" cx="106.4" cy="121.1" r="19.2"/>
<path class="st1" d="M106.4,101.8c10.6,0,19.2,8.6,19.2,19.2c0,10.6-8.6,19.2-19.2,19.2s-19.2-8.6-19.2-19.2S95.7,101.8,106.4,101.8
	 M106.4,100.7c-11.3,0-20.4,9.1-20.4,20.4s9.1,20.4,20.4,20.4s20.4-9.1,20.4-20.4l0,0C126.7,109.8,117.6,100.7,106.4,100.7z"/>
<rect x="142" y="44.3" transform="matrix(0.8586 -0.5126 0.5126 0.8586 -2.8016 84.1158)" class="st2" width="18.1" height="5.7"/>
<path class="st1" d="M144.8,54.2l-2.9-4.9l15.5-9.3l2.9,4.9L144.8,54.2 M145.4,55.2l15.5-9.3c0.5-0.3,0.7-1,0.4-1.5l-2.9-4.9
	c-0.3-0.5-1-0.7-1.6-0.4c0,0,0,0,0,0l-15.5,9.3c-0.5,0.3-0.7,1-0.4,1.5l2.9,4.9C144.1,55.3,144.8,55.5,145.4,55.2L145.4,55.2z"/>
<rect x="11.9" y="122" transform="matrix(0.8586 -0.5126 0.5126 0.8586 -61.0453 28.3671)" class="st2" width="18.1" height="5.7"/>
<path class="st1" d="M14.6,131.9l-2.9-4.9l15.5-9.3l2.9,4.9L14.6,131.9 M15.2,132.9l15.5-9.3c0.5-0.3,0.7-1,0.4-1.5l-2.9-4.9
	c-0.3-0.5-1-0.7-1.6-0.4c0,0,0,0,0,0l-15.5,9.3c-0.5,0.3-0.7,1-0.4,1.6c0,0,0,0,0,0l2.9,4.9C13.9,133.1,14.6,133.3,15.2,132.9
	C15.2,132.9,15.2,132.9,15.2,132.9L15.2,132.9z"/>
<rect x="149.2" y="114.2" transform="matrix(0.4911 -0.8711 0.8711 0.4911 -29.9747 195.1561)" class="st2" width="5.7" height="18.1"/>
<path class="st1" d="M142.8,121.3l2.8-4.9l15.8,8.9l-2.8,4.9L142.8,121.3 M142.2,122.2l15.8,8.9c0.5,0.3,1.2,0.1,1.5-0.4l2.8-4.9
	c0.3-0.5,0.1-1.2-0.4-1.6c0,0,0,0,0,0l-15.8-8.9c-0.5-0.3-1.2-0.1-1.5,0.4l-2.8,4.9C141.5,121.2,141.7,121.9,142.2,122.2
	L142.2,122.2z"/>
<rect x="17.1" y="39.7" transform="matrix(0.4911 -0.8711 0.8711 0.4911 -32.3185 42.2046)" class="st2" width="5.7" height="18.1"/>
<path class="st1" d="M10.7,46.8l2.8-4.9l15.8,8.9l-2.8,4.9L10.7,46.8 M10.1,47.8l15.8,8.9c0.5,0.3,1.2,0.1,1.5-0.4l2.8-4.9
	c0.3-0.5,0.1-1.2-0.4-1.6c0,0,0,0,0,0L14,40.8c-0.6-0.3-1.2-0.1-1.5,0.4c0,0,0,0,0,0l-2.8,4.9C9.4,46.8,9.6,47.5,10.1,47.8
	C10.1,47.8,10.1,47.8,10.1,47.8L10.1,47.8z"/>
<rect x="76.4" y="159" transform="matrix(6.823004e-03 -1 1 6.823004e-03 -76.9035 246.1937)" class="st2" width="18.1" height="5.7"/>
<path class="st1" d="M82.7,152.7l5.7,0l-0.1,18.1l-5.7,0L82.7,152.7 M81.6,152.7l-0.1,18.1c0,0.6,0.5,1.1,1.1,1.1l5.7,0
	c0.6,0,1.2-0.5,1.2-1.1c0,0,0,0,0,0l0.1-18.1c0-0.6-0.5-1.1-1.1-1.1l-5.7,0C82.1,151.6,81.6,152.1,81.6,152.7L81.6,152.7z"/>
<rect x="77.5" y="7.4" transform="matrix(6.823004e-03 -1 1 6.823004e-03 75.747 96.6363)" class="st2" width="18.1" height="5.7"/>
<path class="st1" d="M83.8,1.1l5.7,0l-0.1,18.1l-5.7,0L83.8,1.1 M82.6,1.1l-0.1,18.1c0,0.6,0.5,1.1,1.1,1.1l5.7,0
	c0.6,0,1.2-0.5,1.2-1.1c0,0,0,0,0,0l0.1-18.1c0-0.6-0.5-1.1-1.1-1.1c0,0,0,0,0,0l-5.7,0C83.1,0,82.6,0.5,82.6,1.1
	C82.6,1.1,82.6,1.1,82.6,1.1L82.6,1.1z"/>
</svg>
